<svg width="111" height="19" viewBox="0 0 111 19" fill="none" xmlns="http://www.w3.org/2000/svg">
<path d="M8.40234 0.9375H11.918V12.75C11.918 13.8359 11.6758 14.7969 11.1914 15.6328C10.7148 16.4609 10.0391 17.1016 9.16406 17.5547C8.28906 18.0078 7.30078 18.2344 6.19922 18.2344C4.39453 18.2344 2.98828 17.7773 1.98047 16.8633C0.972656 15.9414 0.46875 14.6406 0.46875 12.9609H4.00781C4.00781 13.7969 4.18359 14.4141 4.53516 14.8125C4.88672 15.2109 5.44141 15.4102 6.19922 15.4102C6.87109 15.4102 7.40625 15.1797 7.80469 14.7188C8.20312 14.2578 8.40234 13.6016 8.40234 12.75V0.9375ZM18.9253 11.9883V18H15.4097V0.9375H22.0659C23.3472 0.9375 24.4722 1.17188 25.4409 1.64062C26.4175 2.10938 27.1675 2.77734 27.6909 3.64453C28.2144 4.50391 28.4761 5.48438 28.4761 6.58594C28.4761 8.25781 27.9019 9.57812 26.7534 10.5469C25.6128 11.5078 24.0308 11.9883 22.0073 11.9883H18.9253ZM18.9253 9.14062H22.0659C22.9956 9.14062 23.7027 8.92188 24.187 8.48438C24.6792 8.04688 24.9253 7.42188 24.9253 6.60938C24.9253 5.77344 24.6792 5.09766 24.187 4.58203C23.6948 4.06641 23.0152 3.80078 22.148 3.78516H18.9253V9.14062Z" fill="#E2B646"/>
<path d="M39.4981 18H37.5108V6.37695H39.4981V18ZM37.3496 3.29395C37.3496 2.97168 37.4463 2.69954 37.6397 2.47754C37.8402 2.25553 38.1338 2.14453 38.5205 2.14453C38.9073 2.14453 39.2009 2.25553 39.4014 2.47754C39.6019 2.69954 39.7022 2.97168 39.7022 3.29395C39.7022 3.61621 39.6019 3.88477 39.4014 4.09961C39.2009 4.31445 38.9073 4.42188 38.5205 4.42188C38.1338 4.42188 37.8402 4.31445 37.6397 4.09961C37.4463 3.88477 37.3496 3.61621 37.3496 3.29395ZM44.5577 6.37695L44.6114 7.66602C45.4636 6.66341 46.613 6.16211 48.0596 6.16211C49.6853 6.16211 50.7917 6.78516 51.3789 8.03125C51.7657 7.47266 52.267 7.02148 52.8829 6.67773C53.5059 6.33398 54.2399 6.16211 55.085 6.16211C57.6345 6.16211 58.9307 7.51204 58.9737 10.2119V18H56.9864V10.3301C56.9864 9.49935 56.7966 8.87988 56.417 8.47168C56.0375 8.05632 55.4001 7.84863 54.5049 7.84863C53.7673 7.84863 53.155 8.07064 52.668 8.51465C52.181 8.9515 51.8982 9.54232 51.8194 10.2871V18H49.8213V10.3838C49.8213 8.69368 48.9942 7.84863 47.3399 7.84863C46.0365 7.84863 45.1449 8.40365 44.6651 9.51367V18H42.6778V6.37695H44.5577ZM61.4551 12.0811C61.4551 10.9424 61.6771 9.91829 62.1211 9.00879C62.5723 8.09928 63.1954 7.39746 63.9903 6.90332C64.7924 6.40918 65.7054 6.16211 66.7295 6.16211C68.3122 6.16211 69.5905 6.70996 70.5645 7.80566C71.5456 8.90137 72.0362 10.3587 72.0362 12.1777V12.3174C72.0362 13.4489 71.8177 14.4658 71.3809 15.3682C70.9512 16.2633 70.3317 16.9616 69.5225 17.4629C68.7204 17.9642 67.7966 18.2148 66.751 18.2148C65.1755 18.2148 63.8972 17.667 62.9161 16.5713C61.9421 15.4756 61.4551 14.0254 61.4551 12.2207V12.0811ZM63.4532 12.3174C63.4532 13.6064 63.7504 14.6413 64.3448 15.4219C64.9463 16.2025 65.7484 16.5928 66.751 16.5928C67.7608 16.5928 68.5629 16.1989 69.1573 15.4111C69.7517 14.6162 70.0489 13.5062 70.0489 12.0811C70.0489 10.8063 69.7445 9.77507 69.1358 8.9873C68.5342 8.19238 67.7321 7.79492 66.7295 7.79492C65.7484 7.79492 64.9571 8.18522 64.3555 8.96582C63.7539 9.74642 63.4532 10.8636 63.4532 12.3174ZM67.6319 1.5H70.0381L67.1592 4.6582H65.5586L67.6319 1.5ZM78.1914 15.3037L81.0704 6.37695H83.1006L78.9327 18H77.418L73.2071 6.37695H75.2373L78.1914 15.3037ZM89.6856 18.2148C88.1101 18.2148 86.8282 17.6992 85.8399 16.668C84.8516 15.6296 84.3575 14.2438 84.3575 12.5107V12.1455C84.3575 10.9925 84.5759 9.96484 85.0127 9.0625C85.4567 8.15299 86.0726 7.44401 86.8604 6.93555C87.6553 6.41992 88.5147 6.16211 89.4385 6.16211C90.9496 6.16211 92.1241 6.65983 92.962 7.65527C93.7998 8.65072 94.2188 10.0758 94.2188 11.9307V12.7578H86.3448C86.3734 13.9036 86.7064 14.8311 87.3438 15.54C87.9883 16.2419 88.8047 16.5928 89.793 16.5928C90.4948 16.5928 91.0892 16.4495 91.5762 16.1631C92.0632 15.8766 92.4893 15.4971 92.8545 15.0244L94.0684 15.9697C93.0944 17.4665 91.6335 18.2148 89.6856 18.2148ZM89.4385 7.79492C88.6364 7.79492 87.9633 8.08854 87.419 8.67578C86.8747 9.25586 86.5381 10.0723 86.4092 11.125H92.2315V10.9746C92.1742 9.96484 91.9021 9.18424 91.4151 8.63281C90.9281 8.07422 90.2692 7.79492 89.4385 7.79492ZM98.6875 18H96.7002V6.37695H98.6875V18ZM96.5391 3.29395C96.5391 2.97168 96.6358 2.69954 96.8291 2.47754C97.0297 2.25553 97.3233 2.14453 97.71 2.14453C98.0967 2.14453 98.3903 2.25553 98.5909 2.47754C98.7914 2.69954 98.8916 2.97168 98.8916 3.29395C98.8916 3.61621 98.7914 3.88477 98.5909 4.09961C98.3903 4.31445 98.0967 4.42188 97.71 4.42188C97.3233 4.42188 97.0297 4.31445 96.8291 4.09961C96.6358 3.88477 96.5391 3.61621 96.5391 3.29395ZM108.646 14.917C108.646 14.3799 108.441 13.9645 108.033 13.6709C107.632 13.3701 106.927 13.1123 105.917 12.8975C104.914 12.6826 104.116 12.4248 103.522 12.124C102.934 11.8232 102.497 11.4652 102.211 11.0498C101.932 10.6344 101.792 10.1403 101.792 9.56738C101.792 8.61491 102.193 7.80924 102.995 7.15039C103.804 6.49154 104.836 6.16211 106.089 6.16211C107.407 6.16211 108.474 6.50228 109.29 7.18262C110.114 7.86296 110.525 8.73307 110.525 9.79297H108.527C108.527 9.2487 108.295 8.77962 107.829 8.38574C107.371 7.99186 106.791 7.79492 106.089 7.79492C105.366 7.79492 104.8 7.95247 104.392 8.26758C103.983 8.58268 103.779 8.99447 103.779 9.50293C103.779 9.98275 103.969 10.3444 104.349 10.5879C104.728 10.8314 105.412 11.0641 106.4 11.2861C107.396 11.5081 108.202 11.7731 108.817 12.0811C109.433 12.389 109.888 12.7614 110.182 13.1982C110.482 13.6279 110.633 14.1543 110.633 14.7773C110.633 15.8158 110.217 16.6501 109.387 17.2803C108.556 17.9033 107.478 18.2148 106.153 18.2148C105.222 18.2148 104.399 18.0501 103.683 17.7207C102.967 17.3913 102.404 16.9329 101.996 16.3457C101.595 15.7513 101.395 15.1104 101.395 14.4229H103.382C103.418 15.0889 103.683 15.6188 104.177 16.0127C104.678 16.3994 105.337 16.5928 106.153 16.5928C106.905 16.5928 107.507 16.4424 107.958 16.1416C108.416 15.8337 108.646 15.4255 108.646 14.917Z" fill="black"/>
</svg>
