<svg width="148" height="30" viewBox="0 0 148 30" fill="none" xmlns="http://www.w3.org/2000/svg">
<path d="M40.6396 22H38.6523V10.377H40.6396V22ZM38.4912 7.29395C38.4912 6.97168 38.5879 6.69954 38.7812 6.47754C38.9818 6.25553 39.2754 6.14453 39.6621 6.14453C40.0488 6.14453 40.3424 6.25553 40.543 6.47754C40.7435 6.69954 40.8438 6.97168 40.8438 7.29395C40.8438 7.61621 40.7435 7.88477 40.543 8.09961C40.3424 8.31445 40.0488 8.42188 39.6621 8.42188C39.2754 8.42188 38.9818 8.31445 38.7812 8.09961C38.5879 7.88477 38.4912 7.61621 38.4912 7.29395ZM45.6992 10.377L45.7529 11.666C46.6051 10.6634 47.7546 10.1621 49.2012 10.1621C50.8268 10.1621 51.9333 10.7852 52.5205 12.0312C52.9072 11.4727 53.4085 11.0215 54.0244 10.6777C54.6475 10.334 55.3815 10.1621 56.2266 10.1621C58.776 10.1621 60.0723 11.512 60.1152 14.2119V22H58.1279V14.3301C58.1279 13.4993 57.9382 12.8799 57.5586 12.4717C57.179 12.0563 56.5417 11.8486 55.6465 11.8486C54.9089 11.8486 54.2965 12.0706 53.8096 12.5146C53.3226 12.9515 53.0397 13.5423 52.9609 14.2871V22H50.9629V14.3838C50.9629 12.6937 50.1357 11.8486 48.4814 11.8486C47.1781 11.8486 46.2865 12.4036 45.8066 13.5137V22H43.8193V10.377H45.6992ZM62.5967 16.0811C62.5967 14.9424 62.8187 13.9183 63.2627 13.0088C63.7139 12.0993 64.3369 11.3975 65.1318 10.9033C65.9339 10.4092 66.847 10.1621 67.8711 10.1621C69.4538 10.1621 70.7321 10.71 71.7061 11.8057C72.6872 12.9014 73.1777 14.3587 73.1777 16.1777V16.3174C73.1777 17.4489 72.9593 18.4658 72.5225 19.3682C72.0928 20.2633 71.4733 20.9616 70.6641 21.4629C69.862 21.9642 68.9382 22.2148 67.8926 22.2148C66.3171 22.2148 65.0387 21.667 64.0576 20.5713C63.0837 19.4756 62.5967 18.0254 62.5967 16.2207V16.0811ZM64.5947 16.3174C64.5947 17.6064 64.8919 18.6413 65.4863 19.4219C66.0879 20.2025 66.89 20.5928 67.8926 20.5928C68.9023 20.5928 69.7044 20.1989 70.2988 19.4111C70.8932 18.6162 71.1904 17.5062 71.1904 16.0811C71.1904 14.8063 70.8861 13.7751 70.2773 12.9873C69.6758 12.1924 68.8737 11.7949 67.8711 11.7949C66.89 11.7949 66.0986 12.1852 65.4971 12.9658C64.8955 13.7464 64.5947 14.8636 64.5947 16.3174ZM68.7734 5.5H71.1797L68.3008 8.6582H66.7002L68.7734 5.5ZM79.333 19.3037L82.2119 10.377H84.2422L80.0742 22H78.5596L74.3486 10.377H76.3789L79.333 19.3037ZM90.8271 22.2148C89.2516 22.2148 87.9697 21.6992 86.9814 20.668C85.9932 19.6296 85.499 18.2438 85.499 16.5107V16.1455C85.499 14.9925 85.7174 13.9648 86.1543 13.0625C86.5983 12.153 87.2142 11.444 88.002 10.9355C88.7969 10.4199 89.6562 10.1621 90.5801 10.1621C92.0911 10.1621 93.2656 10.6598 94.1035 11.6553C94.9414 12.6507 95.3604 14.0758 95.3604 15.9307V16.7578H87.4863C87.515 17.9036 87.848 18.8311 88.4854 19.54C89.1299 20.2419 89.9463 20.5928 90.9346 20.5928C91.6364 20.5928 92.2308 20.4495 92.7178 20.1631C93.2048 19.8766 93.6309 19.4971 93.9961 19.0244L95.21 19.9697C94.236 21.4665 92.7751 22.2148 90.8271 22.2148ZM90.5801 11.7949C89.778 11.7949 89.1048 12.0885 88.5605 12.6758C88.0163 13.2559 87.6797 14.0723 87.5508 15.125H93.373V14.9746C93.3158 13.9648 93.0436 13.1842 92.5566 12.6328C92.0697 12.0742 91.4108 11.7949 90.5801 11.7949ZM99.8291 22H97.8418V10.377H99.8291V22ZM97.6807 7.29395C97.6807 6.97168 97.7773 6.69954 97.9707 6.47754C98.1712 6.25553 98.4648 6.14453 98.8516 6.14453C99.2383 6.14453 99.5319 6.25553 99.7324 6.47754C99.9329 6.69954 100.033 6.97168 100.033 7.29395C100.033 7.61621 99.9329 7.88477 99.7324 8.09961C99.5319 8.31445 99.2383 8.42188 98.8516 8.42188C98.4648 8.42188 98.1712 8.31445 97.9707 8.09961C97.7773 7.88477 97.6807 7.61621 97.6807 7.29395ZM109.787 18.917C109.787 18.3799 109.583 17.9645 109.175 17.6709C108.774 17.3701 108.068 17.1123 107.059 16.8975C106.056 16.6826 105.257 16.4248 104.663 16.124C104.076 15.8232 103.639 15.4652 103.353 15.0498C103.073 14.6344 102.934 14.1403 102.934 13.5674C102.934 12.6149 103.335 11.8092 104.137 11.1504C104.946 10.4915 105.977 10.1621 107.23 10.1621C108.548 10.1621 109.615 10.5023 110.432 11.1826C111.255 11.863 111.667 12.7331 111.667 13.793H109.669C109.669 13.2487 109.436 12.7796 108.971 12.3857C108.512 11.9919 107.932 11.7949 107.23 11.7949C106.507 11.7949 105.941 11.9525 105.533 12.2676C105.125 12.5827 104.921 12.9945 104.921 13.5029C104.921 13.9827 105.111 14.3444 105.49 14.5879C105.87 14.8314 106.554 15.0641 107.542 15.2861C108.537 15.5081 109.343 15.7731 109.959 16.0811C110.575 16.389 111.03 16.7614 111.323 17.1982C111.624 17.6279 111.774 18.1543 111.774 18.7773C111.774 19.8158 111.359 20.6501 110.528 21.2803C109.698 21.9033 108.62 22.2148 107.295 22.2148C106.364 22.2148 105.54 22.0501 104.824 21.7207C104.108 21.3913 103.546 20.9329 103.138 20.3457C102.737 19.7513 102.536 19.1104 102.536 18.4229H104.523C104.559 19.0889 104.824 19.6188 105.318 20.0127C105.82 20.3994 106.479 20.5928 107.295 20.5928C108.047 20.5928 108.648 20.4424 109.1 20.1416C109.558 19.8337 109.787 19.4255 109.787 18.917Z" fill="white"/>
<path d="M9.40234 4.9375H12.918V16.75C12.918 17.8359 12.6758 18.7969 12.1914 19.6328C11.7148 20.4609 11.0391 21.1016 10.1641 21.5547C9.28906 22.0078 8.30078 22.2344 7.19922 22.2344C5.39453 22.2344 3.98828 21.7773 2.98047 20.8633C1.97266 19.9414 1.46875 18.6406 1.46875 16.9609H5.00781C5.00781 17.7969 5.18359 18.4141 5.53516 18.8125C5.88672 19.2109 6.44141 19.4102 7.19922 19.4102C7.87109 19.4102 8.40625 19.1797 8.80469 18.7188C9.20312 18.2578 9.40234 17.6016 9.40234 16.75V4.9375ZM19.9253 15.9883V22H16.4097V4.9375H23.0659C24.3472 4.9375 25.4722 5.17188 26.4409 5.64062C27.4175 6.10938 28.1675 6.77734 28.6909 7.64453C29.2144 8.50391 29.4761 9.48438 29.4761 10.5859C29.4761 12.2578 28.9019 13.5781 27.7534 14.5469C26.6128 15.5078 25.0308 15.9883 23.0073 15.9883H19.9253ZM19.9253 13.1406H23.0659C23.9956 13.1406 24.7027 12.9219 25.187 12.4844C25.6792 12.0469 25.9253 11.4219 25.9253 10.6094C25.9253 9.77344 25.6792 9.09766 25.187 8.58203C24.6948 8.06641 24.0152 7.80078 23.148 7.78516H19.9253V13.1406Z" fill="#E2B646"/>
<path d="M9.40234 4.9375V3.9375H8.40234V4.9375H9.40234ZM12.918 4.9375H13.918V3.9375H12.918V4.9375ZM12.1914 19.6328L11.3262 19.1315L11.3247 19.134L12.1914 19.6328ZM2.98047 20.8633L2.30552 21.6012L2.30865 21.604L2.98047 20.8633ZM1.46875 16.9609V15.9609H0.46875V16.9609H1.46875ZM5.00781 16.9609H6.00781V15.9609H5.00781V16.9609ZM9.40234 5.9375H12.918V3.9375H9.40234V5.9375ZM11.918 4.9375V16.75H13.918V4.9375H11.918ZM11.918 16.75C11.918 17.6822 11.7117 18.4661 11.3262 19.1315L13.0566 20.1342C13.6398 19.1277 13.918 17.9897 13.918 16.75H11.918ZM11.3247 19.134C10.9468 19.7907 10.4147 20.2987 9.70421 20.6667L10.6239 22.4427C11.6634 21.9044 12.4829 21.1312 13.0581 20.1316L11.3247 19.134ZM9.70421 20.6667C8.98739 21.0379 8.15987 21.2344 7.19922 21.2344V23.2344C8.44169 23.2344 9.59074 22.9777 10.6239 22.4427L9.70421 20.6667ZM7.19922 21.2344C5.5602 21.2344 4.4229 20.8215 3.65228 20.1226L2.30865 21.604C3.55366 22.7332 5.22886 23.2344 7.19922 23.2344V21.2344ZM3.65542 20.1254C2.90095 19.4353 2.46875 18.4294 2.46875 16.9609H0.46875C0.46875 18.8518 1.04437 20.4475 2.30552 21.6011L3.65542 20.1254ZM1.46875 17.9609H5.00781V15.9609H1.46875V17.9609ZM4.00781 16.9609C4.00781 17.9076 4.2022 18.8133 4.78532 19.4741L6.28499 18.1509C6.16499 18.0149 6.00781 17.6862 6.00781 16.9609H4.00781ZM4.78532 19.4741C5.39648 20.1668 6.28022 20.4102 7.19922 20.4102V18.4102C6.6026 18.4102 6.37696 18.2551 6.28499 18.1509L4.78532 19.4741ZM7.19922 20.4102C8.128 20.4102 8.95193 20.0776 9.56122 19.3727L8.04815 18.0648C7.86057 18.2818 7.61419 18.4102 7.19922 18.4102V20.4102ZM9.56122 19.3727C10.1693 18.6692 10.4023 17.7468 10.4023 16.75H8.40234C8.40234 17.4564 8.23696 17.8464 8.04815 18.0648L9.56122 19.3727ZM10.4023 16.75V4.9375H8.40234V16.75H10.4023ZM19.9253 15.9883V14.9883H18.9253V15.9883H19.9253ZM19.9253 22V23H20.9253V22H19.9253ZM16.4097 22H15.4097V23H16.4097V22ZM16.4097 4.9375V3.9375H15.4097V4.9375H16.4097ZM26.4409 5.64062L26.0054 6.54079L26.0082 6.54215L26.4409 5.64062ZM28.6909 7.64453L27.8348 8.1613L27.8369 8.16472L28.6909 7.64453ZM27.7534 14.5469L28.3977 15.3117L28.3982 15.3112L27.7534 14.5469ZM19.9253 13.1406H18.9253V14.1406H19.9253V13.1406ZM25.187 12.4844L24.5226 11.7369L24.5167 11.7423L25.187 12.4844ZM23.148 7.78516L23.166 6.78532L23.157 6.78516H23.148V7.78516ZM19.9253 7.78516V6.78516H18.9253V7.78516H19.9253ZM18.9253 15.9883V22H20.9253V15.9883H18.9253ZM19.9253 21H16.4097V23H19.9253V21ZM17.4097 22V4.9375H15.4097V22H17.4097ZM16.4097 5.9375H23.0659V3.9375H16.4097V5.9375ZM23.0659 5.9375C24.2248 5.9375 25.1959 6.1491 26.0054 6.54078L26.8765 4.74047C25.7485 4.19465 24.4696 3.9375 23.0659 3.9375V5.9375ZM26.0082 6.54215C26.822 6.93275 27.4191 7.47259 27.8348 8.16129L29.5471 7.12777C28.9159 6.0821 28.013 5.286 26.8737 4.7391L26.0082 6.54215ZM27.8369 8.16472C28.2559 8.85271 28.4761 9.64991 28.4761 10.5859H30.4761C30.4761 9.31884 30.1728 8.1551 29.545 7.12434L27.8369 8.16472ZM28.4761 10.5859C28.4761 12.0006 28.0047 13.0266 27.1087 13.7825L28.3982 15.3112C29.799 14.1296 30.4761 12.5151 30.4761 10.5859H28.4761ZM27.1091 13.7821C26.2042 14.5445 24.8792 14.9883 23.0073 14.9883V16.9883C25.1823 16.9883 27.0214 16.4711 28.3977 15.3117L27.1091 13.7821ZM23.0073 14.9883H19.9253V16.9883H23.0073V14.9883ZM19.9253 14.1406H23.0659V12.1406H19.9253V14.1406ZM23.0659 14.1406C24.1389 14.1406 25.1241 13.8887 25.8573 13.2265L24.5167 11.7423C24.2812 11.9551 23.8524 12.1406 23.0659 12.1406V14.1406ZM25.8514 13.2318C26.6057 12.5613 26.9253 11.6353 26.9253 10.6094H24.9253C24.9253 11.2085 24.7528 11.5324 24.5227 11.737L25.8514 13.2318ZM26.9253 10.6094C26.9253 9.56381 26.6105 8.62497 25.9104 7.89156L24.4637 9.27251C24.748 9.57035 24.9253 9.98307 24.9253 10.6094H26.9253ZM25.9104 7.89156C25.1951 7.14225 24.2384 6.80464 23.166 6.78532L23.13 8.78499C23.7919 8.79692 24.1945 8.99056 24.4637 9.27251L25.9104 7.89156ZM23.148 6.78516H19.9253V8.78516H23.148V6.78516ZM18.9253 7.78516V13.1406H20.9253V7.78516H18.9253Z" fill="white" fill-opacity="0.13"/>
</svg>
